<svg width="24" height="24" viewBox="0 0 24 24" fill="none" xmlns="http://www.w3.org/2000/svg">
<path d="M20.71 4.62957L19.37 3.28957C19 2.89957 18.35 2.89957 17.96 3.28957L9.97785 11.0426C9.57759 11.4314 9.57293 12.0725 9.96748 12.467L11.3031 13.8027C11.6896 14.1892 12.3149 14.1937 12.707 13.8129L20.71 6.03957C21.1 5.64957 21.1 4.99957 20.71 4.62957Z" fill="currentColor"/>
<path d="M7.625 12.9996C6.72989 12.9996 5.87145 13.3608 5.23851 14.0038C4.60558 14.6468 4.25 15.5188 4.25 16.4281C4.25 17.9253 2.945 18.7139 2 18.7139C3.035 20.1081 4.8125 20.9996 6.5 20.9996C7.69347 20.9996 8.83807 20.5179 9.68198 19.6606C10.5259 18.8033 11 17.6406 11 16.4281C11 15.5188 10.6444 14.6468 10.0115 14.0038C9.37855 13.3608 8.52011 12.9996 7.625 12.9996Z" fill="currentColor"/>
</svg>
