<svg width="20" height="20" viewBox="0 0 20 20" fill="none" xmlns="http://www.w3.org/2000/svg">
<path d="M13.0059 16.873C13.0059 17.3475 13.3765 17.7321 13.8336 17.7321C14.2907 17.7321 14.6613 17.3475 14.6613 16.873C14.6613 16.3986 14.2907 16.0139 13.8336 16.0139C13.3765 16.0139 13.0059 16.3986 13.0059 16.873Z" fill="currentColor"/>
<path d="M5.97061 16.873C5.97061 17.3475 6.34117 17.7321 6.79829 17.7321C7.25541 17.7321 7.62597 17.3475 7.62597 16.873C7.62597 16.3986 7.25541 16.0139 6.79829 16.0139C6.34117 16.0139 5.97061 16.3986 5.97061 16.873Z" fill="currentColor"/>
<path d="M7.04643 16.873C7.04643 16.7307 6.93542 16.6155 6.79829 16.6155C6.66116 16.6155 6.55015 16.7307 6.55015 16.873C6.55015 17.0154 6.66116 17.1306 6.79829 17.1306C6.93542 17.1306 7.04643 17.0154 7.04643 16.873ZM14.0817 16.873C14.0817 16.7307 13.9707 16.6155 13.8336 16.6155C13.6964 16.6155 13.5854 16.7307 13.5854 16.873C13.5854 17.0154 13.6964 17.1306 13.8336 17.1306C13.9707 17.1306 14.0817 17.0154 14.0817 16.873ZM2.46832 1.66699C2.65571 1.66699 2.82803 1.66665 2.97269 1.6779C3.12462 1.68971 3.28701 1.71662 3.45119 1.792C3.69077 1.90206 3.89598 2.07934 4.04366 2.30376C4.14479 2.4575 4.19973 2.61834 4.23846 2.77106C4.27531 2.91642 4.30638 3.09211 4.3403 3.28282V3.2845L4.51085 4.24426H15.4792C15.753 4.24426 15.9966 4.24377 16.1946 4.26188C16.3972 4.28041 16.6184 4.32271 16.8258 4.45148C17.1178 4.63283 17.3375 4.91864 17.4426 5.25604C17.5169 5.49481 17.5071 5.72834 17.4789 5.93727C17.4514 6.14134 17.3965 6.38679 17.3351 6.66297L17.3343 6.66464L16.0353 12.5063L16.0345 12.5096C15.9944 12.6901 15.9577 12.8572 15.9165 12.9954C15.8732 13.1408 15.8147 13.2934 15.7128 13.4384C15.5636 13.6507 15.3618 13.8174 15.1285 13.9208C14.9692 13.9913 14.8128 14.017 14.6661 14.0281C14.5267 14.0387 14.3607 14.0382 14.1811 14.0382H5.55677C5.27737 14.0382 5.03765 13.8309 4.98693 13.5457L3.20062 3.50263V3.50095C3.16358 3.29269 3.14062 3.16899 3.11737 3.07728C3.10012 3.00925 3.08901 2.98656 3.08666 2.98247C3.06058 2.94282 3.02452 2.91126 2.98239 2.89187C2.97934 2.89059 2.95657 2.88308 2.8862 2.8776C2.79479 2.8705 2.6729 2.87005 2.46832 2.87005H2.24604C1.92606 2.87005 1.6665 2.60065 1.6665 2.26852C1.6665 1.9364 1.92606 1.66699 2.24604 1.66699H2.46832ZM6.03931 12.8352H14.1811C14.3773 12.8352 14.4937 12.8351 14.5812 12.8284C14.6213 12.8254 14.645 12.8213 14.6588 12.8184C14.6654 12.817 14.6699 12.8156 14.6718 12.815H14.6734C14.7143 12.7969 14.7503 12.7672 14.7768 12.7294L14.7833 12.716C14.7891 12.703 14.7982 12.6801 14.81 12.6405C14.8357 12.5541 14.8623 12.437 14.9062 12.2395L14.907 12.2361L16.2051 6.3945L16.2059 6.39282C16.2721 6.09508 16.3124 5.9097 16.3312 5.77032C16.3438 5.67691 16.3415 5.63721 16.3401 5.62602C16.3218 5.56727 16.2832 5.51583 16.231 5.4834C16.2422 5.49036 16.2233 5.47185 16.0927 5.45991C15.9575 5.44755 15.7741 5.44732 15.4792 5.44732H4.72505L6.03931 12.8352ZM8.20551 16.873C8.20551 17.6796 7.57539 18.3337 6.79829 18.3337C6.02119 18.3337 5.39107 17.6796 5.39107 16.873C5.39107 16.0665 6.02119 15.4124 6.79829 15.4124C7.57539 15.4124 8.20551 16.0665 8.20551 16.873ZM15.2408 16.873C15.2408 17.6796 14.6107 18.3337 13.8336 18.3337C13.0565 18.3337 12.4264 17.6796 12.4264 16.873C12.4264 16.0665 13.0565 15.4124 13.8336 15.4124C14.6107 15.4124 15.2408 16.0665 15.2408 16.873Z" fill="currentColor"/>
</svg>
