<svg width="24" height="24" viewBox="0 0 24 24" fill="none" xmlns="http://www.w3.org/2000/svg">
<path d="M16.8319 6.27246C17.0792 6.02526 17.4801 6.02528 17.7274 6.27246C17.9747 6.51976 17.9756 6.92161 17.7284 7.16895L12.8964 12L17.7284 16.832C17.9753 17.0794 17.9746 17.4803 17.7274 17.7275C17.4802 17.9747 17.0793 17.9754 16.8319 17.7285L11.9999 12.8965L7.16785 17.7285C6.92047 17.9753 6.51949 17.9747 6.27234 17.7275C6.02516 17.4802 6.02514 17.0793 6.27234 16.832L11.1034 12L6.27234 7.16895C6.0251 6.92161 6.02504 6.51976 6.27234 6.27246C6.51961 6.02519 6.9205 6.02531 7.16785 6.27246L11.9999 11.1035L16.8319 6.27246Z" fill="currentColor"/>
</svg>
