<svg width="20" height="20" viewBox="0 0 20 20" fill="none" xmlns="http://www.w3.org/2000/svg">
<path d="M12.625 13.3248V14.375H4.75V13.3248H12.625ZM13.3248 12.625V4.75C13.3248 4.3634 13.0116 4.05017 12.625 4.05017H4.75C4.3634 4.05017 4.05017 4.3634 4.05017 4.75V12.625C4.05017 13.0116 4.3634 13.3248 4.75 13.3248V14.375L4.57141 14.3656C3.74755 14.2821 3.09292 13.6274 3.0094 12.8036L3 12.625V4.75C3 3.7835 3.7835 3 4.75 3H12.625C13.5915 3 14.375 3.7835 14.375 4.75V12.625C14.375 13.5312 13.6862 14.2761 12.8036 14.3656L12.625 14.375V13.3248C13.0116 13.3248 13.3248 13.0116 13.3248 12.625Z" fill="currentColor"/>
<path d="M15.25 15.9498V17H11.75V15.9498H15.25ZM15.9498 15.25V11.75C15.9498 11.3634 15.6366 11.0502 15.25 11.0502H11.75C11.3634 11.0502 11.0502 11.3634 11.0502 11.75V15.25C11.0502 15.6366 11.3634 15.9498 11.75 15.9498V17C10.7835 17 10 16.2165 10 15.25V11.75C10 10.7835 10.7835 10 11.75 10H15.25L15.4286 10.0094C16.3112 10.0989 17 10.8438 17 11.75V15.25L16.9906 15.4286C16.9011 16.3112 16.1562 17 15.25 17V15.9498C15.6366 15.9498 15.9498 15.6366 15.9498 15.25Z" fill="currentColor"/>
</svg>
