<svg width="24" height="24" viewBox="0 0 24 24" fill="none" xmlns="http://www.w3.org/2000/svg">
<path d="M12.0004 16.4548C11.8532 16.4548 11.717 16.4306 11.5917 16.3821C11.4664 16.3337 11.3444 16.2495 11.2255 16.1298L7.63239 12.538C7.4989 12.4045 7.42942 12.2473 7.42393 12.0662C7.41845 11.8852 7.48793 11.7193 7.63239 11.5684C7.78416 11.4166 7.94736 11.3394 8.12199 11.3366C8.29753 11.3339 8.46073 11.4084 8.61159 11.5602L11.3147 14.2633V3.08611C11.3147 2.89137 11.38 2.72817 11.5108 2.59651C11.6415 2.46486 11.8047 2.39949 12.0004 2.4004C12.196 2.40131 12.3592 2.46669 12.49 2.59651C12.6207 2.72634 12.6861 2.88954 12.6861 3.08611V14.2633L15.3892 11.5602C15.5227 11.4267 15.6813 11.3567 15.8651 11.3503C16.0488 11.3439 16.2162 11.4166 16.367 11.5684C16.5133 11.7193 16.5878 11.8811 16.5906 12.0539C16.5933 12.2267 16.5192 12.3881 16.3684 12.538L12.7752 16.1311C12.6564 16.25 12.5343 16.3337 12.4091 16.3821C12.2847 16.4306 12.1485 16.4548 12.0004 16.4548ZM4.61662 21.6004C3.98485 21.6004 3.45776 21.3892 3.03536 20.9668C2.61296 20.5444 2.4013 20.0169 2.40039 19.3842V16.7469C2.40039 16.5522 2.46576 16.3894 2.59651 16.2587C2.72725 16.1279 2.89045 16.0621 3.0861 16.0612C3.28176 16.0603 3.44496 16.1261 3.5757 16.2587C3.70645 16.3913 3.77182 16.554 3.77182 16.7469V19.3842C3.77182 19.5954 3.85959 19.7892 4.03513 19.9657C4.21068 20.1421 4.40405 20.2299 4.61525 20.229H19.3855C19.5958 20.229 19.7892 20.1412 19.9656 19.9657C20.1421 19.7901 20.2299 19.5963 20.229 19.3842V16.7469C20.229 16.5522 20.2943 16.3894 20.4251 16.2587C20.5558 16.1279 20.719 16.0621 20.9147 16.0612C21.1103 16.0603 21.2735 16.1261 21.4043 16.2587C21.535 16.3913 21.6004 16.554 21.6004 16.7469V19.3842C21.6004 20.0159 21.3892 20.543 20.9668 20.9654C20.5444 21.3878 20.0168 21.5995 19.3842 21.6004H4.61662Z" fill="currentColor"/>
</svg>
