<svg width="36" height="36" viewBox="0 0 36 36" fill="none" xmlns="http://www.w3.org/2000/svg">
<path d="M23.9579 13.7135C24.3369 13.3118 24.9703 13.2935 25.3719 13.6725C25.7736 14.0515 25.792 14.6849 25.413 15.0865L17.6473 23.3151C17.4585 23.515 17.1958 23.6284 16.9208 23.6285C16.6455 23.6285 16.3822 23.5152 16.1932 23.3151L11.6151 18.4645C11.2361 18.0628 11.2545 17.4295 11.6561 17.0504C12.0578 16.6714 12.6911 16.6898 13.0702 17.0914L16.9198 21.1715L23.9579 13.7135Z" fill="#333233"/>
<path d="M28.547 18.3285C28.547 18.2345 28.5481 18.1787 28.5499 18.1215C28.5689 17.5245 28.731 16.9401 29.0226 16.4183C29.0529 16.3641 29.0851 16.3108 29.1261 16.2426L29.127 16.2406L29.4181 15.7562C29.938 14.8912 30.0711 14.6472 30.1241 14.4115C30.1784 14.1701 30.1796 13.9199 30.129 13.6771C30.0801 13.443 29.9533 13.1997 29.4522 12.3363L29.0577 11.6576C28.5547 10.7909 28.4071 10.5594 28.2276 10.3998C28.0435 10.2361 27.826 10.1127 27.5909 10.0394C27.3619 9.96801 27.0878 9.96099 26.087 9.97693L26.086 9.97595L26.0841 9.97693L25.5118 9.98572C25.4222 9.98714 25.364 9.98768 25.3028 9.98669C24.7092 9.97713 24.1255 9.82709 23.6007 9.54626C23.5434 9.51559 23.4783 9.47693 23.419 9.44275C23.3476 9.4015 23.2914 9.36981 23.2374 9.3363C22.7316 9.02235 22.3072 8.59139 22.0011 8.07947C21.9705 8.0283 21.9428 7.9783 21.8976 7.89685L21.6153 7.38806C21.1305 6.5147 20.9867 6.28177 20.8106 6.11951C20.629 5.95211 20.4137 5.82496 20.1788 5.74744C19.9495 5.67181 19.6733 5.65969 18.6671 5.66052L17.8878 5.6615C16.8836 5.66233 16.6084 5.67385 16.38 5.74939C16.1464 5.82667 15.932 5.9539 15.7501 6.12146C15.5736 6.28403 15.4301 6.51718 14.9435 7.39197L14.9395 7.39587L14.6661 7.88904C14.625 7.96289 14.5941 8.01745 14.5616 8.07165C14.2557 8.58234 13.8327 9.0113 13.3282 9.32458C13.2743 9.35804 13.2193 9.38962 13.1476 9.43103C13.0765 9.47206 13.02 9.50458 12.964 9.53454C12.4391 9.81547 11.8552 9.96794 11.2589 9.97693C11.1938 9.97791 11.124 9.97626 11.0489 9.97497L10.4806 9.96521C9.47228 9.94799 9.19541 9.95475 8.96494 10.0267C8.72948 10.1003 8.51162 10.2243 8.32627 10.39C8.14672 10.5507 7.99907 10.7834 7.49814 11.6556L7.49521 11.6586L7.12217 12.307L7.12314 12.308L7.10752 12.3353C6.61053 13.2007 6.4848 13.4438 6.43662 13.6781C6.38715 13.919 6.39015 14.1678 6.44443 14.4086C6.49745 14.6435 6.62809 14.8872 7.14365 15.7465L7.44248 16.2445C7.4617 16.2765 7.47555 16.2989 7.49131 16.3246C7.50554 16.3478 7.52708 16.3821 7.54892 16.4213C7.84097 16.9449 7.99993 17.5301 8.01865 18.1244C8.02062 18.187 8.02062 18.2496 8.0206 18.3314C8.02059 18.4027 8.02166 18.4734 8.01963 18.5375C8.0006 19.1344 7.83855 19.7187 7.54697 20.2406C7.51579 20.2964 7.47994 20.3554 7.4415 20.4193L7.15049 20.9037C6.63079 21.7684 6.49845 22.0116 6.44541 22.2474C6.39115 22.4889 6.38886 22.7399 6.43955 22.9828C6.48903 23.2197 6.61761 23.4662 7.12314 24.3373L7.50888 25.0023C8.01037 25.8664 8.16172 26.099 8.34189 26.2592C8.52731 26.424 8.74414 26.5467 8.97763 26.6195C9.20709 26.691 9.48078 26.6989 10.4825 26.683L11.0431 26.6742C11.1245 26.6729 11.1984 26.671 11.2677 26.6722C11.8613 26.6832 12.4441 26.8357 12.9669 27.1166C13.0269 27.1488 13.0854 27.1832 13.1622 27.2279C13.2299 27.2673 13.2946 27.3047 13.3526 27.3412C13.8504 27.6541 14.2655 28.08 14.5665 28.5814C14.6008 28.6385 14.6324 28.6954 14.6759 28.7738L14.9464 29.2611C15.434 30.1397 15.5803 30.3767 15.7579 30.5404C15.9397 30.7079 16.1551 30.835 16.3897 30.9125C16.6188 30.988 16.8952 30.9992 17.9024 30.9984H18.6817C19.6854 30.9976 19.9601 30.9851 20.1886 30.9095C20.4231 30.8319 20.6383 30.7053 20.8194 30.5385C20.9963 30.3755 21.1409 30.1405 21.629 29.2631L21.9024 28.7709C21.9444 28.6954 21.9748 28.6418 22.0069 28.5883C22.3122 28.0786 22.7341 27.6492 23.2394 27.3353L23.42 27.2289C23.4921 27.1873 23.5474 27.1554 23.6036 27.1254C24.1284 26.8445 24.7134 26.692 25.3097 26.683C25.3677 26.6821 25.4255 26.6829 25.4884 26.684L26.088 26.6947C27.0965 26.7119 27.3729 26.7043 27.6036 26.6322C27.8409 26.558 28.0584 26.4343 28.2423 26.2699C28.4218 26.1093 28.5703 25.8758 29.0714 25.0033L29.461 24.3246C29.958 23.4593 30.0837 23.2161 30.1319 22.9818C30.1816 22.7402 30.1793 22.4908 30.1251 22.2504C30.0728 22.0189 29.9438 21.7796 29.4347 20.931L29.1251 20.4154C29.078 20.3369 29.0492 20.289 29.0206 20.2377C28.7299 19.7165 28.5677 19.1319 28.5489 18.5345C28.547 18.4722 28.547 18.4091 28.547 18.3285ZM30.5479 18.472C30.5566 18.7488 30.6323 19.0204 30.7677 19.2631C30.7811 19.2872 30.7967 19.315 30.8399 19.3871L31.1495 19.9027C31.5883 20.634 31.9365 21.191 32.0763 21.8099C32.1931 22.3277 32.1977 22.8645 32.0909 23.3842C31.9627 24.0079 31.6244 24.5738 31.1954 25.3207L30.8058 25.9994C30.3734 26.7523 30.0527 27.3343 29.5753 27.7611C29.1771 28.1171 28.7081 28.3826 28.2003 28.5414C27.5885 28.7326 26.925 28.7096 26.0538 28.6947L25.4542 28.684C25.38 28.6827 25.3584 28.6827 25.3399 28.683C25.0637 28.6872 24.7914 28.7572 24.547 28.8881C24.5256 28.8995 24.5028 28.9125 24.42 28.9603C24.3376 29.0079 24.3155 29.0218 24.295 29.0345L24.294 29.0336C24.0599 29.179 23.8648 29.3785 23.7228 29.6156C23.7098 29.6372 23.6951 29.6623 23.6505 29.7426L23.3761 30.2357C22.9549 30.9928 22.6441 31.5767 22.1749 32.0092C21.7841 32.3692 21.3203 32.6413 20.8165 32.808C20.2105 33.0084 19.5498 32.9977 18.6827 32.9984H17.2882C16.7065 32.9929 16.2196 32.9622 15.7638 32.8119C15.2583 32.6451 14.7948 32.3717 14.4034 32.0111C13.9331 31.5777 13.6212 30.9936 13.1983 30.2318L12.9278 29.7445C12.8799 29.6582 12.8651 29.6331 12.8517 29.6107C12.7106 29.3759 12.5174 29.1786 12.2882 29.0345C12.2679 29.0218 12.2502 29.0117 12.1554 28.9564C12.0672 28.9051 12.0434 28.8905 12.0206 28.8783C11.7776 28.7477 11.5062 28.6773 11.2306 28.6722C11.2062 28.6718 11.1839 28.6725 11.0753 28.6742L10.5147 28.683C9.64882 28.6968 8.99037 28.7194 8.38193 28.5297C7.87403 28.3713 7.40781 28.1054 7.01279 27.7543C6.537 27.3313 6.21564 26.7579 5.77939 26.0062L5.39365 25.3412C4.95544 24.5862 4.61344 24.0183 4.48252 23.391C4.37362 22.8692 4.37722 22.3297 4.49424 21.809C4.63484 21.1835 4.98668 20.6204 5.43564 19.8734L5.72763 19.389C5.77963 19.3025 5.78991 19.2846 5.80088 19.265C5.93611 19.023 6.01175 18.7517 6.0206 18.474C6.02131 18.4518 6.02058 18.4355 6.0206 18.3314C6.02062 18.2379 6.02036 18.2116 6.01963 18.1879C6.01084 17.9081 5.93578 17.636 5.80185 17.3959C5.80185 17.3959 5.79752 17.3883 5.7872 17.3715C5.77438 17.3506 5.75358 17.317 5.72763 17.2738L5.42881 16.7758C4.98215 16.0313 4.63361 15.471 4.49326 14.849C4.37655 14.3317 4.37065 13.7951 4.47763 13.2748C4.60589 12.6511 4.94437 12.0858 5.37314 11.3392C5.37455 11.3367 5.37562 11.3339 5.37705 11.3314L5.76181 10.6635L5.76377 10.6595C6.19635 9.90633 6.51597 9.32563 6.99326 8.8988C7.39 8.5441 7.85845 8.27687 8.36826 8.11755C8.97999 7.92641 9.64438 7.95034 10.5147 7.96521L11.0831 7.97497C11.1865 7.97674 11.2058 7.97727 11.2286 7.97693C11.5049 7.97276 11.7761 7.90272 12.0206 7.77185C12.0417 7.76055 12.0654 7.74604 12.1476 7.69861C12.2301 7.65098 12.253 7.63809 12.2735 7.62537C12.5088 7.47929 12.7052 7.28061 12.8468 7.04431C12.8594 7.02329 12.8726 6.99902 12.9181 6.91736L13.1925 6.42419L13.2003 6.41052C13.6178 5.65978 13.9275 5.0801 14.3946 4.64978C14.7847 4.2905 15.2474 4.01792 15.752 3.85095C16.3581 3.65052 17.0191 3.66221 17.8858 3.6615L18.6651 3.66052C19.5353 3.6598 20.1973 3.64772 20.8048 3.84802C21.3101 4.01471 21.7745 4.28796 22.1661 4.6488C22.6352 5.08116 22.9452 5.66399 23.3634 6.41736L23.6456 6.92615C23.6869 7.0005 23.7034 7.02898 23.7179 7.0531C23.8596 7.29014 24.0574 7.49081 24.2931 7.63708C24.3133 7.64965 24.3366 7.66333 24.4181 7.71033C24.5123 7.76471 24.5245 7.77212 24.544 7.78259C24.7869 7.91253 25.0582 7.98321 25.3351 7.98767C25.3614 7.98809 25.3915 7.9881 25.4796 7.98669L26.0528 7.97693H26.0558C26.9193 7.96317 27.5785 7.94059 28.1866 8.13025C28.6927 8.28814 29.1596 8.55256 29.5558 8.90466C30.0322 9.32821 30.3536 9.90483 30.7882 10.6537L31.1817 11.3324C31.6137 12.0766 31.9565 12.6428 32.087 13.2679C32.1959 13.7898 32.1923 14.3293 32.0753 14.85C31.9346 15.4756 31.5817 16.0397 31.1329 16.7865L30.8419 17.2709C30.8396 17.2746 30.8364 17.2779 30.8341 17.2816C30.7912 17.3529 30.7795 17.3744 30.7687 17.3939C30.6334 17.636 30.5578 17.9073 30.5489 18.1849C30.548 18.214 30.547 18.247 30.547 18.3285C30.547 18.4219 30.5472 18.4485 30.5479 18.472Z" fill="#333233"/>
</svg>
