<svg width="20" height="20" viewBox="0 0 20 20" fill="none" xmlns="http://www.w3.org/2000/svg">
<path d="M10.8208 9.95472L13.3499 7.44339L13.4108 7.37079C13.5298 7.19927 13.4897 7.01493 13.4067 6.93244C13.3117 6.83833 13.0831 6.80041 12.8928 6.98944L9.5675 10.2913C9.24553 10.6107 8.82418 10.5186 8.59917 10.3652C8.37603 10.2131 8.14988 9.87346 8.29644 9.47159C8.46183 9.01821 8.54243 8.64257 8.52742 8.38862C8.52026 8.26867 8.49362 8.21262 8.4789 8.19116C8.47099 8.17964 8.45433 8.1575 8.38665 8.13891C8.27114 8.10732 8.20341 8.12083 8.15293 8.14298C8.09083 8.17036 8.00436 8.23402 7.90009 8.37369C7.68134 8.66679 7.48757 9.14643 7.28096 9.77151C7.12493 10.2435 6.92778 10.7302 6.74588 11.1877C6.56065 11.6535 6.38971 12.0912 6.26889 12.4986C6.01182 13.3655 6.05969 13.838 6.32766 14.1041L8.68869 16.4485C8.80682 16.5658 9.17438 16.8385 9.71648 16.9045C10.2344 16.9674 10.9831 16.8506 11.9094 16.0882C12.9119 15.2629 13.8745 14.3064 14.5896 13.5517C14.946 13.1756 15.2388 12.8516 15.4424 12.6221C15.544 12.5076 15.6239 12.4168 15.6775 12.3548C15.7043 12.3238 15.7248 12.2993 15.7383 12.2835C15.745 12.2757 15.7501 12.2697 15.7533 12.2659L15.7581 12.2611L15.7725 12.2428L15.7896 12.2258C15.9622 12.0544 15.9228 11.855 15.8442 11.7766C15.7655 11.6984 15.5639 11.6587 15.3912 11.8302L14.0504 13.1616C13.8379 13.3723 13.4934 13.3723 13.2809 13.1616C13.0684 12.9506 13.0679 12.6079 13.2802 12.3968L15.2032 10.4874C15.3933 10.2984 15.3547 10.072 15.26 9.97779C15.1651 9.88361 14.9364 9.84466 14.7461 10.0334L12.8231 11.9429C12.6105 12.1537 12.2661 12.1539 12.0536 11.9429C11.8412 11.7319 11.8413 11.3899 12.0536 11.1788L15.2743 7.98081C15.4041 7.85195 15.4605 7.71818 15.4711 7.61982C15.4805 7.53202 15.4573 7.46221 15.3953 7.40064C15.3333 7.33911 15.263 7.31595 15.1745 7.32532C15.0755 7.3359 14.9407 7.39191 14.811 7.52075L11.5903 10.7188C11.3777 10.9296 11.0333 10.9297 10.8208 10.7188C10.6083 10.5078 10.6085 10.1658 10.8208 9.95472ZM15.7732 9.01357C15.8637 9.06825 15.9504 9.13396 16.0301 9.21306C16.4659 9.64586 16.5257 10.2667 16.298 10.7805C16.4103 10.8397 16.517 10.9166 16.6137 11.0126C17.1681 11.5634 17.0945 12.4241 16.5918 12.956L16.5898 12.958C16.5898 12.958 16.5876 12.9612 16.5857 12.9634C16.5818 12.968 16.576 12.9745 16.5686 12.9831C16.5538 13.0004 16.5319 13.0258 16.5037 13.0584C16.4473 13.1236 16.3647 13.2176 16.2597 13.336C16.0496 13.5728 15.7484 13.9063 15.3823 14.2927C14.6519 15.0635 13.6552 16.0557 12.6044 16.9208C11.4776 17.8482 10.4364 18.0808 9.58459 17.9773C8.757 17.8767 8.17425 17.4671 7.91854 17.2132C7.54449 16.8418 6.28779 15.5939 5.55751 14.8688C4.80928 14.1259 4.96695 13.0625 5.22471 12.1933C5.36129 11.7327 5.54945 11.252 5.73313 10.79C5.92015 10.3196 6.10269 9.8682 6.24634 9.43359C6.44985 8.8179 6.68895 8.18122 7.02538 7.73042C7.19855 7.49838 7.42058 7.28276 7.71011 7.15501C8.01137 7.02219 8.33955 7.00496 8.67503 7.09665C8.96955 7.1772 9.21226 7.34124 9.37821 7.58317C9.5373 7.81512 9.5994 8.07965 9.61397 8.32619C9.62163 8.45614 9.61653 8.59081 9.60167 8.7279L12.1226 6.22471C12.6725 5.67867 13.5933 5.58986 14.1761 6.16839C14.271 6.26255 14.347 6.36619 14.4071 6.4751C14.9407 6.16194 15.6383 6.11391 16.1647 6.63659L16.2775 6.76212C16.792 7.40416 16.5482 8.24396 16.0438 8.74486L15.7732 9.01357Z" fill="currentColor"/>
<path d="M4.41907 2.86588C5.07397 2.45215 5.81396 2.17761 6.58898 2.06203C7.36423 1.9465 8.15747 1.99274 8.91269 2.19745C9.20698 2.27743 9.38133 2.57113 9.30232 2.85397C9.22319 3.13697 8.91991 3.30174 8.62534 3.2219C8.02427 3.05905 7.39211 3.02243 6.77193 3.11483C6.15149 3.20729 5.55777 3.42647 5.03236 3.7584C4.50704 4.09027 4.06286 4.5266 3.7294 5.03666C3.39596 5.54677 3.18128 6.11869 3.10009 6.71276C3.06033 7.0038 2.78287 7.20581 2.48046 7.16382C2.17809 7.1218 1.96501 6.85176 2.00477 6.56075C2.10672 5.81457 2.37589 5.09834 2.79255 4.46091C3.20919 3.82355 3.76409 3.27968 4.41907 2.86588Z" fill="currentColor"/>
<path d="M6.00788 4.59035C6.49578 4.32667 7.03801 4.16615 7.59724 4.1212C8.15633 4.07628 8.71989 4.14781 9.24946 4.33062C9.5378 4.43019 9.69269 4.73541 9.59446 5.01235C9.4961 5.2893 9.18217 5.43312 8.8938 5.33361C8.51481 5.20274 8.10937 5.15116 7.70617 5.18356C7.30307 5.21602 6.91131 5.33161 6.55848 5.52229C6.20565 5.71302 5.90011 5.97453 5.66305 6.28812C5.42605 6.60169 5.26331 6.95996 5.18493 7.33791C5.12529 7.62558 4.8346 7.80835 4.53578 7.74599C4.23698 7.68362 4.04295 7.39978 4.10259 7.11213C4.21214 6.58375 4.43989 6.08486 4.76874 5.64985C5.09747 5.21511 5.52024 4.85393 6.00788 4.59035Z" fill="currentColor"/>
</svg>
