<svg width="20" height="20" viewBox="0 0 20 20" fill="none" xmlns="http://www.w3.org/2000/svg">
<path d="M10 1.90039C10.3497 1.90039 10.6337 2.18348 10.6338 2.5332V9.36621H17.4668C17.8165 9.36628 18.0996 9.65026 18.0996 10C18.0996 10.3497 17.8165 10.6337 17.4668 10.6338H10.6338V17.4668C10.6337 17.8165 10.3497 18.0996 10 18.0996C9.65026 18.0996 9.36628 17.8165 9.36621 17.4668V10.6338H2.5332C2.18348 10.6337 1.90039 10.3497 1.90039 10C1.90039 9.65026 2.18348 9.36628 2.5332 9.36621H9.36621V2.5332C9.36628 2.18348 9.65026 1.90039 10 1.90039Z" fill="currentColor"/>
</svg>
