<svg width="16" height="16" viewBox="0 0 16 16" fill="none" xmlns="http://www.w3.org/2000/svg">
<path d="M7.97202 11.3604C8.16802 11.3604 8.33378 11.2926 8.4693 11.1571C8.60482 11.0216 8.67239 10.856 8.67202 10.6604C8.67165 10.4648 8.60407 10.299 8.4693 10.1631C8.33453 10.0272 8.16877 9.95964 7.97202 9.96038C7.77527 9.96113 7.6097 10.0289 7.4753 10.1637C7.3409 10.2984 7.27314 10.464 7.27202 10.6604C7.2709 10.8568 7.33866 11.0225 7.4753 11.1577C7.61194 11.2928 7.77751 11.3604 7.97202 11.3604ZM7.46802 9.20438H8.50402C8.50402 8.89638 8.53911 8.65372 8.6093 8.47639C8.67949 8.29905 8.87773 8.05639 9.20402 7.74839C9.44669 7.50572 9.63802 7.27463 9.77802 7.05511C9.91802 6.83559 9.98802 6.57201 9.98802 6.26439C9.98802 5.74172 9.79669 5.34039 9.41402 5.06039C9.03135 4.78039 8.57869 4.64039 8.05602 4.64039C7.52402 4.64039 7.09245 4.78039 6.7613 5.06039C6.43016 5.34039 6.19906 5.67639 6.06802 6.06839L6.99202 6.43239C7.03869 6.26439 7.14378 6.08239 7.3073 5.88639C7.47082 5.69039 7.7204 5.59239 8.05602 5.59239C8.35469 5.59239 8.57869 5.67415 8.72802 5.83767C8.87735 6.00119 8.95202 6.18076 8.95202 6.37639C8.95202 6.56306 8.89602 6.73815 8.78402 6.90167C8.67202 7.06519 8.53202 7.21676 8.36402 7.35639C7.95335 7.72039 7.70135 7.99572 7.60802 8.18239C7.51469 8.36905 7.46802 8.70972 7.46802 9.20438ZM8.00002 13.6004C7.22536 13.6004 6.49736 13.4535 5.81602 13.1597C5.13469 12.8658 4.54202 12.4668 4.03802 11.9624C3.53402 11.458 3.13512 10.8653 2.8413 10.1844C2.54749 9.50342 2.4004 8.77542 2.40003 8.00039C2.39965 7.22535 2.54675 6.49735 2.8413 5.81639C3.13586 5.13543 3.53477 4.54276 4.03802 4.03839C4.54128 3.53402 5.13394 3.13511 5.81602 2.84167C6.4981 2.54823 7.2261 2.40114 8.00002 2.40039C8.77394 2.39965 9.50194 2.54674 10.184 2.84167C10.8661 3.13661 11.4588 3.53551 11.962 4.03839C12.4653 4.54127 12.8644 5.13394 13.1593 5.81639C13.4542 6.49884 13.6011 7.22684 13.6 8.00039C13.5989 8.77393 13.4518 9.50193 13.1587 10.1844C12.8657 10.8668 12.4668 11.4595 11.962 11.9624C11.4573 12.4653 10.8646 12.8644 10.184 13.1597C9.50343 13.455 8.77543 13.6019 8.00002 13.6004Z" fill="#554DEA"/>
</svg>
