<svg width="24" height="24" viewBox="0 0 24 24" fill="none" xmlns="http://www.w3.org/2000/svg">
<path d="M16.4327 9.93821C16.4327 6.35127 13.5251 3.44368 9.93821 3.44368C6.35127 3.44368 3.44368 6.35127 3.44368 9.93821C3.44368 13.5251 6.35127 16.4327 9.93821 16.4327C13.5251 16.4327 16.4327 13.5251 16.4327 9.93821ZM17.8764 9.93821C17.8764 11.8702 17.1844 13.6398 16.0371 15.0162L21.7886 20.7678C22.0705 21.0496 22.0705 21.5068 21.7886 21.7886C21.5068 22.0705 21.0496 22.0705 20.7678 21.7886L15.0162 16.0371C13.6398 17.1844 11.8702 17.8764 9.93821 17.8764C5.55417 17.8764 2 14.3222 2 9.93821C2 5.55417 5.55417 2 9.93821 2C14.3222 2 17.8764 5.55417 17.8764 9.93821Z" fill="#333233"/>
</svg>
