<svg width="24" height="24" viewBox="0 0 24 24" fill="none" xmlns="http://www.w3.org/2000/svg">
<path d="M11.9393 2C14.058 2.00019 15.7751 3.72389 15.7751 5.84989V6.77597H17.4316C18.9188 6.77597 20.1552 7.92583 20.2683 9.41379L20.9916 18.9286C21.1174 20.5856 19.8111 22 18.1549 22H5.84507C4.18897 21.9999 2.88265 20.5855 3.00837 18.9286L3.73169 9.41379C3.84475 7.92586 5.08123 6.77602 6.56839 6.77597H8.1025V5.84989C8.1025 3.72382 9.82047 2.00006 11.9393 2ZM6.56839 8.25645C5.85238 8.25651 5.25644 8.80994 5.202 9.52633L4.47971 19.0411C4.41926 19.8388 5.04779 20.5194 5.84507 20.5195H18.1549C18.9523 20.5195 19.5808 19.8388 19.5203 19.0411L18.798 9.52633C18.7436 8.8099 18.1477 8.25645 17.4316 8.25645H6.56839ZM11.9393 3.48049C10.6351 3.48055 9.57692 4.54124 9.57692 5.84989V6.77597H14.3006V5.84989C14.3006 4.54132 13.2434 3.48067 11.9393 3.48049Z" fill="#333233"/>
</svg>
