<svg width="24" height="24" viewBox="0 0 24 24" fill="none" xmlns="http://www.w3.org/2000/svg">
<path d="M15.4135 6.84546C15.4135 4.9666 13.8853 3.44367 12 3.44367C10.1147 3.44367 8.58649 4.9666 8.58649 6.84546C8.58649 8.72433 10.1147 10.2473 12 10.2473C13.8853 10.2473 15.4135 8.72433 15.4135 6.84546ZM16.8622 6.84546C16.8622 9.52143 14.6852 11.6909 12 11.6909C9.31481 11.6909 7.13784 9.52143 7.13784 6.84546C7.13784 4.1695 9.31481 2 12 2C14.6852 2 16.8622 4.1695 16.8622 6.84546Z" fill="#333233"/>
<path d="M19.5514 20.202C19.5511 16.6402 16.654 13.753 13.0799 13.7527H10.9201C7.34601 13.753 4.44891 16.6402 4.44865 20.202C4.44865 20.3975 4.60801 20.5563 4.80424 20.5563H19.1958C19.392 20.5563 19.5514 20.3975 19.5514 20.202ZM21 20.202C21 21.1946 20.1918 22 19.1958 22H4.80424C3.80817 22 3 21.1946 3 20.202C3.00026 15.8431 6.54617 12.3093 10.9201 12.3091H13.0799C17.4538 12.3093 20.9997 15.8431 21 20.202Z" fill="#333233"/>
</svg>
