<svg width="16" height="16" viewBox="0 0 16 16" fill="none" xmlns="http://www.w3.org/2000/svg">
<path d="M9.69763 5.75156C9.69763 5.54586 9.61627 5.34926 9.47263 5.20469C9.3291 5.06026 9.13526 4.97898 8.93357 4.97891H3.64451C3.44273 4.97891 3.24826 5.0602 3.10466 5.20469C2.96116 5.34924 2.87966 5.54596 2.87966 5.75156V10.4469C2.87966 10.6525 2.96116 10.8492 3.10466 10.9938C3.24826 11.1382 3.44273 11.2195 3.64451 11.2195H8.93357C9.13526 11.2195 9.3291 11.1382 9.47263 10.9938C9.61627 10.8492 9.69763 10.6526 9.69763 10.4469V5.75156ZM10.9687 7.50234V8.46484L13.1203 10.3945V5.57266L10.9687 7.50234ZM10.6578 6.49141L12.7617 4.60547H12.7625C12.8764 4.50369 13.0174 4.43658 13.1687 4.41328L13.2828 4.40391C13.3586 4.40332 13.4341 4.41419 13.507 4.43516L13.614 4.47422L13.7148 4.52891C13.7786 4.56976 13.8363 4.61942 13.8859 4.67656L13.9539 4.76797L14.0086 4.86719C14.0557 4.97047 14.0797 5.08339 14.0797 5.19766V10.7703C14.0797 10.9225 14.0362 11.0718 13.9539 11.2C13.8714 11.3283 13.7534 11.4307 13.614 11.4938C13.4747 11.5567 13.32 11.578 13.1687 11.5547C13.0174 11.5314 12.8764 11.4643 12.7625 11.3625H12.7617L10.6578 9.47578V10.4469C10.6578 10.9053 10.4769 11.346 10.1539 11.6711C9.83078 11.9962 9.39176 12.1788 8.93357 12.1789H3.64451C3.1863 12.1789 2.74734 11.9961 2.42419 11.6711C2.10113 11.346 1.92029 10.9053 1.92029 10.4469V5.75156C1.92029 5.29312 2.10113 4.85241 2.42419 4.52734C2.74734 4.20232 3.1863 4.01953 3.64451 4.01953H8.93357C9.39176 4.0196 9.83078 4.20227 10.1539 4.52734C10.4769 4.85241 10.6578 5.29312 10.6578 5.75156V6.49141Z" fill="#636363"/>
</svg>
