<svg xmlns="http://www.w3.org/2000/svg" width="100" height="18" fill="none" viewBox="0 0 100 18"><path fill="#fff" d="M21.357 17.733V.268s.116-.23.23-.23h13.19s.23.115.23.23v3.21s-.114.23-.23.23h-9.432s-.23.114-.23.229v2.866s.115.23.23.23h8.282s.23.114.23.228v3.058s-.115.23-.23.23h-8.282s-.23.114-.23.228v3.21s.115.23.23.23h9.433s.23.114.23.23v3.248s-.115.229-.23.229h-13.19s-.23-.115-.23-.23m39.11.268h-3.336s-.23-.115-.23-.23V6.843c0-.268-.346-.307-.46-.077L51.84 17.847s-.115.153-.23.153h-2.109s-.191-.038-.23-.153L44.708 6.803c-.115-.23-.46-.153-.46.076v10.854s-.115.229-.23.229h-3.336s-.23-.115-.23-.23V.269s.115-.23.23-.23h4.87s.192.077.23.153l4.563 11.274a.227.227 0 0 0 .422 0L55.33.191s.114-.152.23-.152h4.792s.23.114.23.229v17.465s-.114.229-.23.229m5.906-.229V.268s.115-.23.23-.23h13.19s.23.115.23.23v3.21s-.115.23-.23.23h-9.432s-.23.114-.23.229v2.866s.114.23.23.23h8.282s.23.114.23.228v3.058s-.115.23-.23.23h-8.282s-.23.114-.23.228v3.21s.114.23.23.23h9.432s.23.114.23.23v3.248s-.115.229-.23.229h-13.19s-.23-.115-.23-.23m24.77-3.439h8.742s.23.115.23.23v3.248s-.115.229-.23.229H85.698s-.23-.115-.23-.23v-2.674s0-.115.038-.153l8.55-10.815s0-.383-.191-.383h-7.937s-.23-.114-.23-.229V.268s.115-.23.23-.23H99.31s.23.115.23.23v2.675s0 .115-.039.153L90.875 13.91s0 .382.192.382m-78.644-3.095s0-.267.077-.305C17.293 8.408 16.258 0 9.47 0H.23S0 .115 0 .23v3.248s.115.229.23.229h8.934c3.26 0 3.26 4.471 0 4.471H.23s-.23.115-.23.23v9.324s.115.23.23.23h3.336s.23-.115.23-.23V11.81s.115-.23.23-.23h4.256s.154.039.192.115l3.374 6.115s.115.114.192.114h3.834s.307-.19.192-.343l-3.681-6.383z"/></svg>