<svg xmlns="http://www.w3.org/2000/svg" width="430" height="43" fill="none" viewBox="0 0 430 43"><path fill="#c1c5c8" d="M236.645 32.876c-1.733 0-3.074-1.38-3.074-3.11 0-1.707 1.341-3.086 3.074-3.086 1.688 0 3.028 1.38 3.028 3.086 0 1.73-1.34 3.11-3.028 3.11m0-1.754c.717 0 1.295-.608 1.295-1.356s-.578-1.333-1.295-1.333c-.762 0-1.317.585-1.317 1.333s.555 1.356 1.317 1.356m-17.778 5.822v-4.209c0-3.46 2.566-6.055 6.009-6.055 3.421 0 6.033 2.572 6.033 6.056v4.208c0 3.484-2.612 6.056-6.033 6.056-3.443 0-6.009-2.595-6.009-6.056m2.242-4.209v4.21c0 2.244 1.595 3.81 3.767 3.81 2.173 0 3.791-1.566 3.791-3.81v-4.21c0-2.244-1.618-3.834-3.791-3.834s-3.767 1.59-3.767 3.835m-16.536 5.027c0-.351.046-.702.115-1.03l1.341-6.967c.323-1.73 1.34-2.759 3.721-2.759h5.154v2.221h-5.108c-.947 0-1.479.304-1.664 1.24l-.624 3.18h.069c.994-.702 2.265-1.1 3.421-1.1 3.606-.023 5.755 2.128 5.755 5.168 0 3.086-2.473 5.26-6.009 5.26-3.837 0-6.171-2.197-6.171-5.213m2.242 0c0 1.776 1.294 2.992 3.929 2.992 2.334 0 3.767-1.239 3.767-3.04s-1.479-3.016-3.883-3.016c-2.311 0-3.813 1.24-3.813 3.064m-9.301-4.093h.508c2.519 0 4.461 1.895 4.461 4.42 0 2.548-1.965 4.583-4.484 4.583h-6.564V40.45h6.471c1.249 0 2.265-1.052 2.265-2.361s-1.016-2.362-2.265-2.362h-3.49v-1.636l4.161-4.864h-7.142v-2.221h10.239v1.73zm228.93-31.42c-6.088 7.628-18.347 13.535-33.983 18.053-15.583 4.504-34.317 7.574-53.129 9.664-37.619 4.178-75.421 4.422-88.68 4.422h-.963v1.948h.963c13.274 0 51.163-.243 88.891-4.433 18.861-2.095 37.715-5.18 53.446-9.726 15.679-4.531 28.462-10.57 34.954-18.705l.605-.757-1.498-1.225z"/><path fill="#c1c5c8" d="m416.129 2.592.35 1.919 11.348-2.121-1.17 11.634 1.915.197L430 0zM3.556 2.25c6.09 7.63 18.29 13.536 33.835 18.054 15.492 4.503 34.105 7.573 52.796 9.663 37.378 4.178 74.939 4.422 88.198 4.422h.963v1.948h-.963c-13.274 0-50.922-.243-88.41-4.433-18.74-2.095-37.475-5.18-53.117-9.727-15.59-4.532-28.31-10.57-34.801-18.704l-.605-.757L2.95 1.49z"/><path fill="#c1c5c8" d="m13.87 2.592-.349 1.919L2.173 2.39l1.17 11.634-1.915.197L0 0z"/></svg>