<svg xmlns="http://www.w3.org/2000/svg" width="220" height="23" fill="none" viewBox="0 0 220 23"><path fill="#fff" d="M27.29 22.594V.341s.147-.292.294-.292h16.854s.294.146.294.292v4.09s-.147.293-.294.293H32.385s-.294.146-.294.292v3.652s.147.292.294.292h10.583s.294.146.294.292v3.896s-.147.292-.294.292H32.385s-.294.146-.294.292v4.09s.147.292.294.292h12.053s.294.146.294.292v4.14s-.147.291-.294.291H27.584s-.294-.146-.294-.292m49.974.341h-4.263s-.294-.146-.294-.292V8.717c0-.341-.44-.39-.587-.098L66.24 22.74s-.147.195-.294.195h-2.694s-.245-.049-.294-.195l-5.83-14.072c-.148-.292-.589-.195-.589.097v13.829s-.147.292-.294.292h-4.262s-.294-.146-.294-.292V.341s.147-.292.294-.292h6.222s.245.098.294.195l5.83 14.364a.29.29 0 0 0 .54 0L70.698.244s.147-.195.294-.195h6.124s.294.146.294.292v22.253s-.147.292-.294.292m7.546-.292V.341s.147-.292.294-.292h16.854s.294.146.294.292v4.09s-.147.293-.294.293H89.758s-.294.146-.294.292v3.652s.147.292.294.292h10.583s.294.146.294.292v3.896s-.147.292-.294.292H89.758s-.294.146-.294.292v4.09s.147.292.294.292h12.052s.294.146.294.292v4.14s-.147.291-.294.291H84.956s-.294-.146-.294-.292m31.65-4.382h11.171s.294.146.294.292v4.139s-.147.292-.294.292h-17.981s-.294-.146-.294-.292v-3.408s0-.147.049-.195l10.926-13.78s0-.487-.245-.487h-10.142s-.294-.146-.294-.292V.342s.147-.293.294-.293h17.099s.294.146.294.292V3.75s0 .146-.049.195l-11.024 13.78s0 .487.245.487M15.874 14.267s0-.34.098-.39C22.096 10.712 20.774 0 12.102 0H.294S0 .146 0 .292v4.139s.147.292.294.292H11.71c4.164 0 4.164 5.697 0 5.697H.294S0 10.566 0 10.712v11.881s.147.293.294.293h4.262s.294-.147.294-.293v-7.547s.147-.292.294-.292h5.439s.196.049.245.146l4.311 7.79s.147.147.245.147h4.9s.392-.244.245-.438l-4.704-8.132zm201.872 8.086h-2.252l-1.57-3.698h-6.57l-1.549 3.698h-2.232l5.992-13.842h2.169zm-7.128-11.445-2.438 5.805h4.917zm-17.631 8.801V7.478h1.963V19.44c0 .64.371 1.012 1.033 1.012h1.652v1.901h-1.942c-1.756 0-2.706-.97-2.706-2.644m-7.148-7.872c3.389 0 5.517 2.686 5.248 6.095h-8.45c.145 1.59 1.467 2.83 3.326 2.83 1.323 0 2.418-.62 2.872-1.59h2.046c-.682 2.169-2.604 3.47-5 3.47-3.306 0-5.33-2.479-5.33-5.392 0-2.995 2.148-5.413 5.288-5.413m-.041 1.88c-1.611 0-2.83 1.034-3.119 2.48h6.28c-.31-1.467-1.529-2.48-3.161-2.48m-9.088 0V7.478h1.942v14.875h-1.942v-1.487h-.104c-.743 1.033-2.024 1.756-3.636 1.776-3.037.042-5.206-2.21-5.206-5.392 0-3.202 2.211-5.454 5.186-5.413 1.632.02 2.913.785 3.677 1.88zm-3.471 7.045c2.086 0 3.45-1.57 3.45-3.512 0-1.921-1.364-3.512-3.45-3.512-2.149 0-3.512 1.57-3.512 3.512s1.363 3.512 3.512 3.512m-12.362 1.881c-3.327 0-5.537-2.418-5.537-5.413 0-3.017 2.21-5.393 5.537-5.393 3.264 0 5.454 2.376 5.454 5.393 0 2.995-2.19 5.413-5.454 5.413m0-1.88c2.086 0 3.491-1.612 3.491-3.533 0-1.942-1.405-3.513-3.491-3.513-2.149 0-3.554 1.57-3.554 3.513s1.405 3.532 3.554 3.532m-7.476-12.251v13.842h-2.004V11.61l-4.649 10.743h-1.735l-4.607-10.68v10.68h-2.004V8.511h2.768l4.773 11.033 4.751-11.033z"/></svg>