<svg xmlns="http://www.w3.org/2000/svg" style="display:none">
<symbol id="arrow-left" viewBox="0 0 20 20"><path fill="currentColor" d="M6.242 5.41a.6.6 0 0 1 .849.847L3.948 9.399H17.5a.6.6 0 0 1 0 1.2H3.948l3.143 3.143a.6.6 0 0 1-.849.849l-4.166-4.167a.6.6 0 0 1 0-.849z"/></symbol>
<symbol id="arrow-right" viewBox="0 0 20 20"><path fill="currentColor" d="M12.91 5.41a.6.6 0 0 1 .848 0l4.166 4.165a.6.6 0 0 1 0 .849l-4.166 4.167a.6.6 0 0 1-.849-.849l3.143-3.142H2.5a.6.6 0 0 1 0-1.2h13.552l-3.143-3.143a.6.6 0 0 1 0-.848"/></symbol>
<symbol id="brush" viewBox="0 0 24 24"><path fill="currentColor" d="m20.71 4.63-1.34-1.34c-.37-.39-1.02-.39-1.41 0l-7.982 7.753a1 1 0 0 0-.01 1.424l1.335 1.336a1 1 0 0 0 1.404.01L20.71 6.04c.39-.39.39-1.04 0-1.41M7.625 13c-.895 0-1.754.36-2.386 1.004a3.46 3.46 0 0 0-.989 2.424c0 1.497-1.305 2.286-2.25 2.286C3.035 20.108 4.813 21 6.5 21a4.47 4.47 0 0 0 3.182-1.34A4.6 4.6 0 0 0 11 16.429c0-.91-.356-1.781-.989-2.424A3.35 3.35 0 0 0 7.626 13"/></symbol>
<symbol id="burger" viewBox="0 0 32 32"><path fill="#fff" d="M28 24v2H4v-2zm0-9v2H4v-2zm0-9v2H4V6z"/></symbol>
<symbol id="cart-stroke" viewBox="0 0 20 20"><path fill="currentColor" d="M13.006 16.873c0 .474.37.86.828.86s.827-.386.827-.86-.37-.86-.827-.86-.828.386-.828.86m-7.036 0c0 .474.371.86.828.86s.828-.386.828-.86-.37-.86-.828-.86-.827.386-.827.86"/><path fill="currentColor" d="M7.046 16.873a.253.253 0 0 0-.248-.258.253.253 0 0 0-.248.258c0 .142.111.258.248.258a.253.253 0 0 0 .248-.258m7.036 0a.253.253 0 0 0-.248-.258.253.253 0 0 0-.249.258c0 .142.111.258.249.258a.253.253 0 0 0 .248-.258M2.468 1.667c.188 0 .36 0 .505.01.152.013.314.04.478.115.24.11.445.287.593.512.1.154.156.314.194.467.037.145.068.321.102.512v.002l.17.96h10.97c.273 0 .517-.001.715.017.202.018.423.06.63.19.293.18.512.467.618.804.074.239.064.472.036.681-.028.204-.082.45-.144.726v.002l-1.3 5.841v.004c-.04.18-.077.347-.119.485a1.5 1.5 0 0 1-.203.443c-.15.213-.351.38-.584.483-.16.07-.316.096-.463.107-.14.01-.305.01-.485.01H5.557a.586.586 0 0 1-.57-.492L3.2 3.503V3.5a7 7 0 0 0-.084-.424.5.5 0 0 0-.03-.095.25.25 0 0 0-.105-.09.4.4 0 0 0-.096-.014 6 6 0 0 0-.418-.008h-.222c-.32 0-.58-.27-.58-.601 0-.333.26-.602.58-.602zM6.04 12.835h8.142c.196 0 .313 0 .4-.007a1 1 0 0 0 .09-.013h.002a.25.25 0 0 0 .104-.086l.006-.013.027-.075a7 7 0 0 0 .096-.402l.001-.003 1.298-5.842v-.001a9 9 0 0 0 .126-.623.6.6 0 0 0 .01-.144.26.26 0 0 0-.11-.143c.011.007-.008-.011-.138-.023a8 8 0 0 0-.614-.013H4.725zm2.167 4.038c0 .807-.63 1.46-1.408 1.46s-1.407-.653-1.407-1.46.63-1.46 1.407-1.46 1.408.654 1.408 1.46m7.035 0c0 .807-.63 1.46-1.407 1.46s-1.408-.653-1.408-1.46.63-1.46 1.408-1.46 1.407.654 1.407 1.46"/></symbol>
<symbol id="chevron-down" viewBox="0 0 20 20"><path fill="#333233" d="M10 14.001 3 6.802l.779-.801L10 12.399 16.221 6l.779.801z"/><path fill="#333233" d="M17.18 6.977 10 14.359 2.82 6.977l-.169-.175 1.128-1.16.179.185L10 12.04l6.042-6.212.179-.184 1.128 1.159zm-.958-.619L10 12.758l-6.22-6.4-.43.444 6.65 6.84 6.651-6.84z"/></symbol>
<symbol id="chevron-left" viewBox="0 0 32 32"><path fill="currentColor" d="m8.586 16 12.707 12.707 1.414-1.414L11.414 16 22.707 4.707l-1.414-1.414z"/></symbol>
<symbol id="chevron-right" viewBox="0 0 32 32"><path fill="currentColor" d="M23.414 16 10.707 28.707l-1.414-1.414L20.586 16 9.293 4.707l1.414-1.414z"/></symbol>
<symbol id="close" viewBox="0 0 24 24"><path fill="currentColor" d="M16.832 6.272a.633.633 0 0 1 .896.897L12.896 12l4.832 4.832a.634.634 0 0 1-.896.896L12 12.897 7.168 17.73a.634.634 0 0 1-.896-.897L11.103 12l-4.83-4.831a.634.634 0 0 1 .895-.897L12 11.104z"/></symbol>
<symbol id="complect" viewBox="0 0 20 20"><path fill="currentColor" d="M12.625 13.325v1.05H4.75v-1.05zm.7-.7V4.75a.7.7 0 0 0-.7-.7H4.75a.7.7 0 0 0-.7.7v7.875a.7.7 0 0 0 .7.7v1.05l-.179-.01a1.75 1.75 0 0 1-1.562-1.561L3 12.625V4.75C3 3.784 3.784 3 4.75 3h7.875c.966 0 1.75.784 1.75 1.75v7.875a1.75 1.75 0 0 1-1.571 1.74l-.179.01v-1.05a.7.7 0 0 0 .7-.7"/><path fill="currentColor" d="M15.25 15.95V17h-3.5v-1.05zm.7-.7v-3.5a.7.7 0 0 0-.7-.7h-3.5a.7.7 0 0 0-.7.7v3.5a.7.7 0 0 0 .7.7V17A1.75 1.75 0 0 1 10 15.25v-3.5c0-.966.784-1.75 1.75-1.75h3.5l.179.01A1.75 1.75 0 0 1 17 11.75v3.5l-.01.179A1.75 1.75 0 0 1 15.25 17v-1.05a.7.7 0 0 0 .7-.7"/></symbol>
<symbol id="download" viewBox="0 0 24 24"><path fill="currentColor" d="M12 16.455q-.22 0-.408-.073a1.1 1.1 0 0 1-.367-.252l-3.593-3.592a.68.68 0 0 1-.208-.472.68.68 0 0 1 .208-.498q.228-.227.49-.231.264-.005.49.223l2.703 2.703V3.086A.667.667 0 0 1 12 2.4a.67.67 0 0 1 .686.686v11.177l2.703-2.703a.7.7 0 0 1 .476-.21.66.66 0 0 1 .502.218q.218.227.224.486.003.26-.223.484l-3.593 3.593q-.178.179-.366.251-.186.073-.409.073M4.617 21.6q-.949 0-1.582-.633-.633-.634-.635-1.583v-2.637q0-.293.197-.488a.67.67 0 0 1 .49-.198q.292 0 .489.198.196.198.196.488v2.637q0 .316.263.582.264.264.58.263h14.77q.316 0 .58-.263.265-.264.264-.582v-2.637q0-.293.196-.488a.67.67 0 0 1 .49-.198q.292 0 .49.198.195.198.195.488v2.637q0 .948-.633 1.581-.634.634-1.583.635z"/></symbol>
<symbol id="guarantee" viewBox="0 0 36 36"><path fill="#333233" d="M23.958 13.714a1 1 0 0 1 1.455 1.372l-7.766 8.23a1 1 0 0 1-1.454 0l-4.578-4.851a1 1 0 0 1 1.455-1.374l3.85 4.08z"/><path fill="#333233" d="M28.547 18.329a3.74 3.74 0 0 1 .476-1.91c.03-.055.062-.108.103-.176l.001-.002.291-.485c.52-.865.653-1.109.706-1.344.054-.242.056-.492.005-.735-.049-.234-.176-.477-.677-1.34l-.394-.68c-.503-.866-.65-1.098-.83-1.257a1.7 1.7 0 0 0-.637-.36c-.23-.072-.503-.079-1.504-.063l-.001-.001h-.002l-.572.01c-.09.001-.148.002-.21 0a3.7 3.7 0 0 1-1.701-.44c-.058-.03-.123-.07-.182-.103-.071-.041-.128-.073-.182-.107a3.74 3.74 0 0 1-1.236-1.257 5 5 0 0 1-.103-.182l-.283-.509c-.484-.873-.628-1.106-.804-1.268a1.7 1.7 0 0 0-.632-.373c-.23-.075-.506-.087-1.512-.086h-.78c-1.003.001-1.279.013-1.507.088a1.7 1.7 0 0 0-.63.372c-.176.163-.32.396-.806 1.271l-.005.004-.273.493-.104.183a3.74 3.74 0 0 1-1.414 1.359l-.184.104a3.7 3.7 0 0 1-1.705.442l-.21-.002-.568-.01c-1.009-.017-1.286-.01-1.516.062a1.7 1.7 0 0 0-.639.363c-.18.16-.327.393-.828 1.266l-.003.003-.373.648.001.001-.015.027c-.497.866-.623 1.109-.671 1.343-.05.241-.047.49.007.73.053.236.184.48.7 1.338l.298.498.05.08.057.097a3.74 3.74 0 0 1 .472 1.91l-.001.207a3.74 3.74 0 0 1-.473 1.703q-.047.082-.106.178l-.29.485c-.52.864-.653 1.108-.706 1.343a1.7 1.7 0 0 0-.005.736c.049.237.178.483.683 1.354l.386.665c.501.864.653 1.097.833 1.257.185.165.402.288.636.36.23.072.503.08 1.505.064l.56-.009q.121-.003.225-.002a3.74 3.74 0 0 1 1.699.445c.06.032.118.066.195.11q.103.06.19.114a3.74 3.74 0 0 1 1.324 1.433l.27.487c.488.879.634 1.116.812 1.28.182.167.397.294.632.372.229.075.505.086 1.512.085h.78c1.003 0 1.278-.013 1.507-.088.234-.078.45-.205.63-.372.177-.163.322-.398.81-1.275l.273-.492a3.73 3.73 0 0 1 1.337-1.436l.181-.106a3.74 3.74 0 0 1 2.068-.545l.6.01c1.008.018 1.285.01 1.516-.062.237-.074.454-.198.638-.362.18-.16.328-.394.83-1.267l.389-.678c.497-.866.623-1.109.67-1.343.05-.242.048-.491-.006-.732-.052-.231-.181-.47-.69-1.319l-.31-.516c-.047-.078-.076-.126-.104-.177a3.74 3.74 0 0 1-.472-1.703c-.002-.063-.002-.126-.002-.207m2 .143c.01.277.085.548.22.791l.073.124.31.516c.438.731.787 1.288.926 1.907a3.7 3.7 0 0 1 .015 1.574c-.128.624-.467 1.19-.896 1.937l-.39.678c-.432.753-.752 1.335-1.23 1.762a3.7 3.7 0 0 1-1.375.78c-.611.192-1.275.169-2.146.154l-.6-.011-.114-.001a1.74 1.74 0 0 0-.92.277l-.125.075-.001-.001a1.7 1.7 0 0 0-.571.582l-.072.127-.275.493c-.421.757-.732 1.34-1.201 1.773-.39.36-.855.632-1.358.799-.607.2-1.267.19-2.134.19h-1.395c-.582-.005-1.068-.036-1.524-.186a3.7 3.7 0 0 1-1.36-.8c-.47-.434-.783-1.018-1.206-1.78l-.27-.488-.076-.133a1.74 1.74 0 0 0-.564-.576l-.133-.079c-.088-.05-.112-.066-.134-.078a1.74 1.74 0 0 0-.79-.206l-.156.002-.56.009c-.866.014-1.525.036-2.133-.153a3.7 3.7 0 0 1-1.37-.776c-.475-.423-.796-.996-1.233-1.748l-.385-.665c-.439-.755-.78-1.323-.911-1.95a3.7 3.7 0 0 1 .011-1.582c.14-.626.493-1.189.942-1.936l.292-.484.073-.124c.135-.242.21-.513.22-.791v-.143l-.001-.143a1.74 1.74 0 0 0-.218-.792l-.015-.024-.06-.098-.298-.498c-.447-.745-.795-1.305-.936-1.927a3.7 3.7 0 0 1-.015-1.574c.128-.624.466-1.19.895-1.936l.004-.008.385-.667.002-.005c.432-.753.752-1.333 1.23-1.76a3.7 3.7 0 0 1 1.374-.781c.612-.192 1.276-.168 2.147-.153l.568.01.146.002c.276-.004.547-.074.792-.205l.127-.073c.082-.048.105-.06.126-.074.235-.146.431-.344.573-.58l.071-.128.275-.493.007-.013c.418-.751.728-1.33 1.195-1.761.39-.36.852-.632 1.357-.8.606-.2 1.267-.188 2.134-.188l.78-.001c.87-.001 1.531-.013 2.139.187.505.167.97.44 1.361.8.47.433.78 1.016 1.197 1.77l.283.508c.04.074.057.103.072.127a1.74 1.74 0 0 0 .7.657l.126.073c.243.13.514.2.791.205l.145-.001.573-.01h.003c.863-.014 1.522-.036 2.13.153.507.158.974.423 1.37.775.476.423.798 1 1.232 1.749l.394.678c.432.745.774 1.31.905 1.936a3.7 3.7 0 0 1-.012 1.582c-.14.626-.493 1.19-.942 1.937l-.291.484-.008.01a2 2 0 0 0-.065.113 1.7 1.7 0 0 0-.22.79 4 4 0 0 0-.001.288"/></symbol>
<symbol id="hand-shake" viewBox="0 0 20 20"><path fill="currentColor" d="m10.82 9.955 2.53-2.512.06-.072c.12-.172.08-.356-.003-.439-.095-.094-.324-.132-.514.057l-3.325 3.302c-.322.32-.744.228-.969.074-.223-.152-.45-.492-.303-.893.166-.454.246-.83.231-1.083a.4.4 0 0 0-.048-.198c-.008-.011-.025-.034-.092-.052-.116-.032-.184-.018-.234.004-.062.027-.149.091-.253.23-.219.294-.412.773-.619 1.399-.156.471-.353.958-.535 1.416a16 16 0 0 0-.477 1.31c-.257.868-.21 1.34.059 1.606l2.36 2.345c.119.117.486.39 1.028.455.518.063 1.267-.053 2.193-.816 1.003-.825 1.965-1.782 2.68-2.536a39 39 0 0 0 1.088-1.197l.061-.072.015-.017.005-.005.015-.018.017-.017c.172-.172.133-.371.054-.45-.079-.078-.28-.117-.453.054l-1.34 1.332a.547.547 0 0 1-.77 0 .54.54 0 0 1 0-.765l1.922-1.91c.19-.189.152-.415.057-.51-.095-.093-.324-.132-.514.056l-1.923 1.91a.547.547 0 0 1-.77 0 .54.54 0 0 1 0-.764l3.221-3.198a.63.63 0 0 0 .197-.361.25.25 0 0 0-.076-.22.25.25 0 0 0-.22-.075.64.64 0 0 0-.364.196l-3.22 3.198a.547.547 0 0 1-.77 0 .54.54 0 0 1 0-.764m4.953-.941q.136.08.257.2c.436.432.496 1.053.268 1.566q.17.09.316.233c.554.55.48 1.411-.022 1.943l-.002.002-.004.005-.017.02a20 20 0 0 1-.31.353c-.21.237-.51.57-.877.957-.73.77-1.727 1.763-2.778 2.628-1.126.927-2.168 1.16-3.02 1.056-.827-.1-1.41-.51-1.665-.764L5.558 14.87c-.749-.743-.591-1.806-.333-2.676.136-.46.324-.941.508-1.403.187-.47.37-.922.513-1.356.204-.616.443-1.253.78-1.704.173-.232.395-.447.684-.575.301-.133.63-.15.965-.058.295.08.537.244.703.486.16.232.221.497.236.743q.011.196-.012.402l2.52-2.503c.55-.546 1.471-.635 2.054-.057q.142.143.231.307c.534-.313 1.231-.361 1.758.162l.113.125c.514.642.27 1.482-.234 1.983zM4.42 2.866a5.6 5.6 0 0 1 2.169-.804 5.7 5.7 0 0 1 2.324.135c.294.08.468.374.39.657a.55.55 0 0 1-.678.368 4.54 4.54 0 0 0-3.593.536c-.525.332-.97.769-1.303 1.279A4.1 4.1 0 0 0 3.1 6.713a.54.54 0 0 1-.62.45.544.544 0 0 1-.475-.602 5.1 5.1 0 0 1 .788-2.1 5.4 5.4 0 0 1 1.626-1.595"/><path fill="currentColor" d="M6.008 4.59a4 4 0 0 1 1.59-.469 4.1 4.1 0 0 1 1.651.21c.289.1.444.404.345.681a.55.55 0 0 1-.7.322 2.93 2.93 0 0 0-2.336.188 2.8 2.8 0 0 0-.895.766c-.237.314-.4.672-.478 1.05a.54.54 0 0 1-.65.408.544.544 0 0 1-.432-.634c.11-.528.337-1.027.666-1.462a3.8 3.8 0 0 1 1.239-1.06"/></symbol>
<symbol id="info-in-cloud" viewBox="0 0 72 72"><path fill="#636363" fill-rule="evenodd" d="M57.429 10C62.162 10 66 13.882 66 18.668v25.998c0 4.786-3.838 8.666-8.571 8.666H42.514L36 62l-6.514-8.668H14.57C9.838 53.332 6 49.45 6 44.664V18.666C6 13.88 9.838 10 14.571 10zM33.857 44.666h4.286V25.168h-4.286zm0-25.998v4.333h4.286v-4.333z" clip-rule="evenodd"/></symbol>
<symbol id="minus" viewBox="0 0 20 20"><path fill="currentColor" fill-rule="evenodd" d="M2 10c0-.294.239-.533.533-.533h14.934a.533.533 0 0 1 0 1.066H2.533A.533.533 0 0 1 2 10" clip-rule="evenodd"/></symbol>
<symbol id="plus" viewBox="0 0 20 20"><path fill="currentColor" d="M10 1.9c.35 0 .634.283.634.633v6.833h6.833a.633.633 0 0 1 0 1.268h-6.833v6.833a.633.633 0 0 1-1.268 0v-6.833H2.533a.633.633 0 0 1 0-1.268h6.833V2.533c0-.35.284-.633.634-.633"/></symbol>
<symbol id="question-rounded" viewBox="0 0 16 16"><path fill="#554dea" d="M7.972 11.36a.68.68 0 0 0 .497-.203.67.67 0 0 0 .203-.497.68.68 0 0 0-.203-.497.67.67 0 0 0-.497-.203.68.68 0 0 0-.497.204.68.68 0 0 0-.203.496.67.67 0 0 0 .203.498.68.68 0 0 0 .497.202m-.504-2.156h1.036q0-.462.105-.728.106-.266.595-.728a4.2 4.2 0 0 0 .574-.693q.21-.33.21-.79 0-.785-.574-1.205t-1.358-.42q-.798 0-1.295.42t-.693 1.008l.924.364q.07-.252.315-.546t.749-.294q.448 0 .672.246.225.245.224.538a.9.9 0 0 1-.168.526 2.2 2.2 0 0 1-.42.454q-.616.546-.756.826t-.14 1.022M8 13.6a5.5 5.5 0 0 1-2.184-.44 5.7 5.7 0 0 1-1.778-1.198 5.7 5.7 0 0 1-1.197-1.778A5.5 5.5 0 0 1 2.4 8q0-1.162.441-2.184a5.7 5.7 0 0 1 1.197-1.778 5.6 5.6 0 0 1 1.778-1.196A5.5 5.5 0 0 1 8 2.4a5.4 5.4 0 0 1 2.184.442 5.7 5.7 0 0 1 1.778 1.196 5.7 5.7 0 0 1 1.197 1.778Q13.601 6.84 13.6 8a5.6 5.6 0 0 1-1.638 3.962 5.7 5.7 0 0 1-1.778 1.198A5.4 5.4 0 0 1 8 13.6"/></symbol>
<symbol id="search" viewBox="0 0 24 24"><path fill="#333233" d="M16.433 9.938a6.494 6.494 0 1 0-12.99 0 6.494 6.494 0 0 0 12.99 0m1.443 0a7.9 7.9 0 0 1-1.839 5.078l5.752 5.752a.722.722 0 1 1-1.021 1.02l-5.752-5.75a7.938 7.938 0 1 1 2.86-6.099"/></symbol>
<symbol id="shopping-bag" viewBox="0 0 24 24"><path fill="#333233" d="M11.94 2a3.843 3.843 0 0 1 3.835 3.85v.926h1.657a2.85 2.85 0 0 1 2.836 2.638l.724 9.515A2.85 2.85 0 0 1 18.155 22H5.845a2.85 2.85 0 0 1-2.837-3.071l.724-9.515a2.85 2.85 0 0 1 2.836-2.638h1.534V5.85A3.844 3.844 0 0 1 11.94 2M6.567 8.256c-.716 0-1.312.554-1.366 1.27l-.722 9.515a1.37 1.37 0 0 0 1.365 1.479h12.31c.797 0 1.426-.681 1.365-1.479l-.722-9.515a1.37 1.37 0 0 0-1.366-1.27zM11.94 3.48a2.366 2.366 0 0 0-2.362 2.37v.926H14.3V5.85a2.365 2.365 0 0 0-2.362-2.37"/></symbol>
<symbol id="user" viewBox="0 0 24 24"><path fill="#333233" d="M15.414 6.845A3.41 3.41 0 0 0 12 3.444a3.41 3.41 0 0 0-3.414 3.401A3.41 3.41 0 0 0 12 10.247a3.41 3.41 0 0 0 3.414-3.402m1.448 0c0 2.676-2.177 4.846-4.862 4.846S7.138 9.52 7.138 6.845 9.315 2 12 2s4.862 2.17 4.862 4.845m2.689 13.357c0-3.562-2.897-6.449-6.471-6.45h-2.16c-3.574.001-6.471 2.888-6.471 6.45 0 .195.159.354.355.354h14.392a.355.355 0 0 0 .355-.354m1.449 0c0 .993-.808 1.798-1.804 1.798H4.804A1.8 1.8 0 0 1 3 20.202c0-4.359 3.546-7.893 7.92-7.893h2.16c4.374 0 7.92 3.534 7.92 7.893"/></symbol>
<symbol id="videocamera" viewBox="0 0 16 16"><path fill="#636363" d="M9.698 5.752a.78.78 0 0 0-.225-.547.76.76 0 0 0-.54-.226H3.646a.76.76 0 0 0-.54.226.78.78 0 0 0-.225.547v4.695c0 .206.081.402.225.547a.76.76 0 0 0 .54.226h5.289a.76.76 0 0 0 .539-.226.78.78 0 0 0 .225-.547zm1.27 1.75v.963l2.152 1.93V5.573zm-.31-1.01 2.104-1.887a.8.8 0 0 1 .407-.192l.114-.01a.8.8 0 0 1 .224.032l.107.04.1.054q.097.06.172.148l.068.091.055.1a.8.8 0 0 1 .07.33v5.572a.8.8 0 0 1-.465.724.79.79 0 0 1-.852-.131l-2.104-1.887v.97c0 .46-.181.9-.504 1.225a1.72 1.72 0 0 1-1.22.508h-5.29a1.72 1.72 0 0 1-1.22-.508 1.74 1.74 0 0 1-.504-1.224V5.752c0-.459.181-.9.504-1.225a1.72 1.72 0 0 1 1.22-.507h5.29c.458 0 .897.182 1.22.507s.504.766.504 1.225z"/></symbol>
</svg>
