<svg width="44" height="44" viewBox="0 0 44 44" fill="none" xmlns="http://www.w3.org/2000/svg">
<path d="M20.1666 12.8333L14.6662 22H22.0001L16.4996 31.1667M27.2364 11H29.3339C30.3064 11 31.2391 11.3863 31.9268 12.0739C32.6145 12.7616 33.0009 13.6942 33.0009 14.6667V29.3333C33.0009 30.3058 32.6145 31.2384 31.9268 31.9261C31.2391 32.6137 30.3064 33 29.3339 33H23.9526M40.3349 25.6667V18.3333M9.42241 33H7.33224C6.35971 33 5.427 32.6137 4.73931 31.9261C4.05162 31.2384 3.66528 30.3058 3.66528 29.3333V14.6667C3.66528 13.6942 4.05162 12.7616 4.73931 12.0739C5.427 11.3863 6.35971 11 7.33224 11H12.7153" stroke="url(#paint0_linear_483_94)" stroke-width="2" stroke-linecap="square"/>
<defs>
<linearGradient id="paint0_linear_483_94" x1="22.0001" y1="11" x2="22.0001" y2="33" gradientUnits="userSpaceOnUse">
<stop stop-color="#16A34A"/>
<stop offset="0.5" stop-color="#0EAC8C"/>
<stop offset="1" stop-color="#06B6D4"/>
</linearGradient>
</defs>
</svg>
