<svg width="44" height="44" viewBox="0 0 44 44" fill="none" xmlns="http://www.w3.org/2000/svg">
<path d="M15.3176 21.5336L20.25 26.3237L29.0009 17.8253M36 23.6976C36 32.1962 29.875 36.4455 22.595 38.9101C22.2138 39.0356 21.7997 39.0295 21.4225 38.8931C14.125 36.4455 8 32.1962 8 23.6976V11.7996C8 11.3488 8.18437 10.9165 8.51256 10.5977C8.84075 10.279 9.28587 10.0999 9.75 10.0999C13.25 10.0999 17.625 8.06025 20.67 5.47668C21.0407 5.16903 21.5124 5 22 5C22.4876 5 22.9593 5.16903 23.33 5.47668C26.3925 8.07725 30.75 10.0999 34.25 10.0999C34.7141 10.0999 35.1593 10.279 35.4874 10.5977C35.8156 10.9165 36 11.3488 36 11.7996V23.6976Z" stroke="url(#paint0_linear_483_273)" stroke-width="2"/>
<defs>
<linearGradient id="paint0_linear_483_273" x1="22" y1="5" x2="22" y2="39" gradientUnits="userSpaceOnUse">
<stop stop-color="#F97316"/>
<stop offset="1" stop-color="#EF4444"/>
</linearGradient>
</defs>
</svg>
