<svg width="44" height="44" viewBox="0 0 44 44" fill="none" xmlns="http://www.w3.org/2000/svg">
<path d="M3.66528 23.8343C4.63782 23.8343 5.57053 23.448 6.25822 22.7603C6.9459 22.0726 7.33224 21.1399 7.33224 20.1673V12.8334C7.33224 11.8609 7.71858 10.9282 8.40627 10.2405C9.09396 9.5528 10.0267 9.16646 10.9992 9.16646C11.9717 9.16646 12.9044 9.5528 13.5921 10.2405C14.2798 10.9282 14.6662 11.8609 14.6662 12.8334V36.6687C14.6662 37.6412 15.0525 38.5739 15.7402 39.2616C16.4279 39.9493 17.3606 40.3356 18.3331 40.3356C19.3057 40.3356 20.2384 39.9493 20.9261 39.2616C21.6137 38.5739 22.0001 37.6412 22.0001 36.6687V7.33298C22.0001 6.36044 22.3864 5.42773 23.0741 4.74004C23.7618 4.05235 24.6945 3.66602 25.667 3.66602C26.6396 3.66602 27.5723 4.05235 28.26 4.74004C28.9477 5.42773 29.334 6.36044 29.334 7.33298V31.1682C29.334 32.1408 29.7203 33.0735 30.408 33.7611C31.0957 34.4488 32.0284 34.8352 33.001 34.8352C33.9735 34.8352 34.9062 34.4488 35.5939 33.7611C36.2816 33.0735 36.6679 32.1408 36.6679 31.1682V23.8343C36.6679 22.8618 37.0543 21.9291 37.742 21.2414C38.4296 20.5537 39.3623 20.1673 40.3349 20.1673" stroke="url(#paint0_linear_483_548)" stroke-width="2"/>
<defs>
<linearGradient id="paint0_linear_483_548" x1="22.0001" y1="3.66602" x2="22.0001" y2="40.3356" gradientUnits="userSpaceOnUse">
<stop stop-color="#1970F6"/>
<stop offset="1" stop-color="#3AF0F0"/>
</linearGradient>
</defs>
</svg>
