<svg xmlns="http://www.w3.org/2000/svg" width="44" height="44" fill="none" viewBox="0 0 44 44"><path stroke="url(#a)" stroke-width="2" d="m15.318 21.534 4.932 4.79L29 17.825m7 5.873c0 8.498-6.125 12.748-13.405 15.212a1.8 1.8 0 0 1-1.172-.017C14.125 36.446 8 32.196 8 23.698V11.8c0-.451.184-.884.513-1.202A1.78 1.78 0 0 1 9.75 10.1c3.5 0 7.875-2.04 10.92-4.623C21.04 5.169 21.512 5 22 5s.96.169 1.33.477c3.063 2.6 7.42 4.623 10.92 4.623.464 0 .91.179 1.237.498.329.318.513.75.513 1.202z"/><defs><linearGradient id="a" x1="22" x2="22" y1="5" y2="39" gradientUnits="userSpaceOnUse"><stop stop-color="#f97316"/><stop offset="1" stop-color="#ef4444"/></linearGradient></defs></svg>