<svg width="430" height="43" viewBox="0 0 430 43" fill="none" xmlns="http://www.w3.org/2000/svg">
<path d="M236.645 32.8758C234.912 32.8758 233.571 31.4963 233.571 29.766C233.571 28.0592 234.912 26.6797 236.645 26.6797C238.333 26.6797 239.673 28.0592 239.673 29.766C239.673 31.4963 238.333 32.8758 236.645 32.8758ZM236.645 31.1222C237.362 31.1222 237.94 30.5142 237.94 29.766C237.94 29.0178 237.362 28.4333 236.645 28.4333C235.883 28.4333 235.328 29.0178 235.328 29.766C235.328 30.5142 235.883 31.1222 236.645 31.1222Z" fill="#C1C5C8"/>
<path d="M218.867 36.9442V32.7355C218.867 29.275 221.433 26.6797 224.876 26.6797C228.297 26.6797 230.909 29.2516 230.909 32.7355V36.9442C230.909 40.428 228.297 43 224.876 43C221.433 43 218.867 40.4046 218.867 36.9442ZM221.109 32.7355V36.9442C221.109 39.1888 222.704 40.7554 224.876 40.7554C227.049 40.7554 228.667 39.1888 228.667 36.9442V32.7355C228.667 30.4909 227.049 28.9009 224.876 28.9009C222.704 28.9009 221.109 30.4909 221.109 32.7355Z" fill="#C1C5C8"/>
<path d="M204.573 37.7625C204.573 37.4118 204.619 37.0611 204.688 36.7337L206.029 29.766C206.352 28.0358 207.369 27.007 209.75 27.007H214.904V29.2283H209.796C208.849 29.2283 208.317 29.5322 208.132 30.4675L207.508 33.6474H207.577C208.571 32.9459 209.842 32.5484 210.998 32.5484C214.604 32.5251 216.753 34.6762 216.753 37.7158C216.753 40.8021 214.28 42.9766 210.744 42.9766C206.907 42.9766 204.573 40.7788 204.573 37.7625ZM206.815 37.7625C206.815 39.5395 208.109 40.7554 210.744 40.7554C213.078 40.7554 214.511 39.5161 214.511 37.7158C214.511 35.9154 213.032 34.6995 210.628 34.6995C208.317 34.6995 206.815 35.9388 206.815 37.7625Z" fill="#C1C5C8"/>
<path d="M197.514 33.6708H198.022C200.541 33.6708 202.483 35.5647 202.483 38.0899C202.483 40.6385 200.518 42.6727 197.999 42.6727H191.435V40.4514H197.906C199.155 40.4514 200.171 39.3992 200.171 38.0899C200.171 36.7805 199.155 35.7283 197.906 35.7283H194.416V34.0916L198.577 29.2283H191.435V27.007H201.674V28.7372L197.514 33.6708Z" fill="#C1C5C8"/>
<path d="M426.444 2.24966C420.356 9.878 408.097 15.7847 392.461 20.3034C376.878 24.8068 358.144 27.8772 339.332 29.9667C301.713 34.1452 263.911 34.3888 250.652 34.3888H249.689V36.3373H250.652C263.926 36.3373 301.815 36.0943 339.543 31.9038C358.404 29.8088 377.258 26.7239 392.989 22.1776C408.668 17.6466 421.451 11.6084 427.943 3.47316L428.548 2.71585L427.05 1.4914L426.444 2.24966Z" fill="#C1C5C8"/>
<path d="M416.129 2.59236L416.479 4.5108L427.827 2.38968L426.657 14.024L428.572 14.2212L430 0L416.129 2.59236Z" fill="#C1C5C8"/>
<path d="M3.55607 2.24966C9.64509 9.87922 21.8463 15.7861 37.3905 20.3043C52.8828 24.8074 71.4958 27.8773 90.1872 29.9667C127.565 34.1451 165.126 34.3888 178.385 34.3888H179.348V36.3373H178.385C165.111 36.3373 127.463 36.0944 89.9756 31.9038C71.2344 29.8088 52.4999 26.7233 36.8582 22.1767C21.2686 17.6452 8.54845 11.6072 2.05699 3.47316L1.45229 2.71585L2.95042 1.4914L3.55607 2.24966Z" fill="#C1C5C8"/>
<path d="M13.8706 2.59236L13.5212 4.5108L2.17316 2.38968L3.34275 14.024L1.42849 14.2212L0 0L13.8706 2.59236Z" fill="#C1C5C8"/>
</svg>
