<svg width="220" height="23" viewBox="0 0 220 23" fill="none" xmlns="http://www.w3.org/2000/svg">
<path d="M27.2898 22.594V0.341474C27.2898 0.341474 27.4368 0.0493164 27.5838 0.0493164H44.4378C44.4378 0.0493164 44.7318 0.195396 44.7318 0.341474V4.43165C44.7318 4.43165 44.5848 4.72381 44.4378 4.72381H32.3852C32.3852 4.72381 32.0912 4.86989 32.0912 5.01596V8.66791C32.0912 8.66791 32.2382 8.96006 32.3852 8.96006H42.968C42.968 8.96006 43.2619 9.10614 43.2619 9.25222V13.1476C43.2619 13.1476 43.115 13.4398 42.968 13.4398H32.3852C32.3852 13.4398 32.0912 13.5859 32.0912 13.7319V17.8221C32.0912 17.8221 32.2382 18.1143 32.3852 18.1143H44.4378C44.4378 18.1143 44.7318 18.2604 44.7318 18.4064V22.5453C44.7318 22.5453 44.5848 22.8375 44.4378 22.8375H27.5838C27.5838 22.8375 27.2898 22.6914 27.2898 22.5453" fill="white"/>
<path d="M77.264 22.8861H73.0015C73.0015 22.8861 72.7075 22.7401 72.7075 22.594V8.7166C72.7075 8.37575 72.2666 8.32706 72.1196 8.61921L66.2403 22.7401C66.2403 22.7401 66.0933 22.9348 65.9463 22.9348H63.2516C63.2516 22.9348 63.0067 22.8861 62.9577 22.7401L57.1273 8.66791C56.9804 8.37575 56.5394 8.47313 56.5394 8.76529V22.594C56.5394 22.594 56.3924 22.8861 56.2454 22.8861H51.9829C51.9829 22.8861 51.689 22.7401 51.689 22.594V0.341474C51.689 0.341474 51.836 0.0493164 51.9829 0.0493164H58.2052C58.2052 0.0493164 58.4502 0.146701 58.4992 0.244087L64.3295 14.6084C64.4275 14.8519 64.7705 14.8519 64.8684 14.6084L70.6988 0.244087C70.6988 0.244087 70.8458 0.0493164 70.9927 0.0493164H77.117C77.117 0.0493164 77.411 0.195396 77.411 0.341474V22.594C77.411 22.594 77.264 22.8861 77.117 22.8861" fill="white"/>
<path d="M84.6624 22.594V0.341474C84.6624 0.341474 84.8093 0.0493164 84.9563 0.0493164H101.81C101.81 0.0493164 102.104 0.195396 102.104 0.341474V4.43165C102.104 4.43165 101.957 4.72381 101.81 4.72381H89.7578C89.7578 4.72381 89.4638 4.86989 89.4638 5.01596V8.66791C89.4638 8.66791 89.6108 8.96006 89.7578 8.96006H100.341C100.341 8.96006 100.635 9.10614 100.635 9.25222V13.1476C100.635 13.1476 100.488 13.4398 100.341 13.4398H89.7578C89.7578 13.4398 89.4638 13.5859 89.4638 13.7319V17.8221C89.4638 17.8221 89.6108 18.1143 89.7578 18.1143H101.81C101.81 18.1143 102.104 18.2604 102.104 18.4064V22.5453C102.104 22.5453 101.957 22.8375 101.81 22.8375H84.9563C84.9563 22.8375 84.6624 22.6914 84.6624 22.5453" fill="white"/>
<path d="M116.312 18.163H127.483C127.483 18.163 127.777 18.309 127.777 18.4551V22.594C127.777 22.594 127.63 22.8861 127.483 22.8861H109.502C109.502 22.8861 109.208 22.7401 109.208 22.594V19.1855C109.208 19.1855 109.208 19.0394 109.257 18.9907L120.183 5.21073C120.183 5.21073 120.183 4.72381 119.938 4.72381H109.796C109.796 4.72381 109.502 4.57773 109.502 4.43165V0.341474C109.502 0.341474 109.649 0.0493164 109.796 0.0493164H126.895C126.895 0.0493164 127.189 0.195396 127.189 0.341474V3.74995C127.189 3.74995 127.189 3.89603 127.14 3.94472L116.116 17.7247C116.116 17.7247 116.116 18.2117 116.361 18.2117" fill="white"/>
<path d="M15.8742 14.2669C15.8742 14.2669 15.8742 13.9261 15.9721 13.8774C22.0964 10.7124 20.7736 0 12.1016 0H0.293973C0.293973 0 0 0.146075 0 0.292153V4.43103C0 4.43103 0.14699 4.72318 0.293973 4.72318H11.7096C15.8742 4.72318 15.8742 10.4202 11.7096 10.4202H0.293973C0.293973 10.4202 0 10.5663 0 10.7124V22.5934C0 22.5934 0.14699 22.8855 0.293973 22.8855H4.55647C4.55647 22.8855 4.85044 22.7394 4.85044 22.5934V15.046C4.85044 15.046 4.99743 14.7539 5.14441 14.7539H10.5828C10.5828 14.7539 10.7788 14.8025 10.8277 14.8999L15.1392 22.6907C15.1392 22.6907 15.2862 22.8368 15.3842 22.8368H20.2836C20.2836 22.8368 20.6756 22.5934 20.5286 22.3986L15.8252 14.2669H15.8742Z" fill="white"/>
<path d="M217.746 22.3534H215.494L213.924 18.6553H207.354L205.805 22.3534H203.573L209.565 8.51123H211.734L217.746 22.3534ZM210.618 10.9078L208.18 16.7132H213.097L210.618 10.9078Z" fill="white"/>
<path d="M192.987 19.7087V7.47803H194.95V19.4402C194.95 20.0806 195.321 20.4525 195.983 20.4525H197.635V22.3532H195.693C193.937 22.3532 192.987 21.3822 192.987 19.7087Z" fill="white"/>
<path d="M185.839 11.8374C189.228 11.8374 191.356 14.5232 191.087 17.9321H182.637C182.782 19.5229 184.104 20.7625 185.963 20.7625C187.286 20.7625 188.381 20.1427 188.835 19.1717H190.881C190.199 21.341 188.277 22.6426 185.881 22.6426C182.575 22.6426 180.551 20.1634 180.551 17.2503C180.551 14.2546 182.699 11.8374 185.839 11.8374ZM185.798 13.7175C184.187 13.7175 182.968 14.7505 182.679 16.1967H188.959C188.649 14.7298 187.43 13.7175 185.798 13.7175Z" fill="white"/>
<path d="M176.71 13.7173V7.47803H178.652V22.3532H176.71V20.8657H176.606C175.863 21.8987 174.582 22.6218 172.97 22.6424C169.933 22.6838 167.764 20.4318 167.764 17.2502C167.764 14.0479 169.975 11.796 172.95 11.8373C174.582 11.8579 175.863 12.6224 176.627 13.7173H176.71ZM173.239 20.7624C175.325 20.7624 176.689 19.1922 176.689 17.2502C176.689 15.3288 175.325 13.738 173.239 13.738C171.09 13.738 169.727 15.3082 169.727 17.2502C169.727 19.1922 171.09 20.7624 173.239 20.7624Z" fill="white"/>
<path d="M160.877 22.6426C157.55 22.6426 155.34 20.2254 155.34 17.2297C155.34 14.2133 157.55 11.8374 160.877 11.8374C164.141 11.8374 166.331 14.2133 166.331 17.2297C166.331 20.2254 164.141 22.6426 160.877 22.6426ZM160.877 20.7625C162.963 20.7625 164.368 19.151 164.368 17.2297C164.368 15.2876 162.963 13.7175 160.877 13.7175C158.728 13.7175 157.323 15.2876 157.323 17.2297C157.323 19.1717 158.728 20.7625 160.877 20.7625Z" fill="white"/>
<path d="M153.401 8.51123V22.3534H151.397V11.6102L146.748 22.3534H145.013L140.406 11.6722V22.3534H138.402V8.51123H141.17L145.943 19.5437L150.694 8.51123H153.401Z" fill="white"/>
</svg>
