<svg width="100" height="18" viewBox="0 0 100 18" fill="none" xmlns="http://www.w3.org/2000/svg">
<path d="M21.3574 17.7327V0.267874C21.3574 0.267874 21.4725 0.0385742 21.5875 0.0385742H34.7777C34.7777 0.0385742 35.0077 0.153225 35.0077 0.267874V3.47804C35.0077 3.47804 34.8927 3.70734 34.7777 3.70734H25.3452C25.3452 3.70734 25.1151 3.82199 25.1151 3.93664V6.80286C25.1151 6.80286 25.2301 7.03216 25.3452 7.03216H33.6274C33.6274 7.03216 33.8574 7.14681 33.8574 7.26146V10.3188C33.8574 10.3188 33.7424 10.5481 33.6274 10.5481H25.3452C25.3452 10.5481 25.1151 10.6627 25.1151 10.7774V13.9875C25.1151 13.9875 25.2301 14.2168 25.3452 14.2168H34.7777C34.7777 14.2168 35.0077 14.3315 35.0077 14.4461V17.6945C35.0077 17.6945 34.8927 17.9238 34.7777 17.9238H21.5875C21.5875 17.9238 21.3574 17.8092 21.3574 17.6945" fill="white"/>
<path d="M60.4675 17.962H57.1316C57.1316 17.962 56.9015 17.8474 56.9015 17.7327V6.84108C56.9015 6.57357 56.5564 6.53535 56.4414 6.76465L51.8402 17.8474C51.8402 17.8474 51.7252 18.0002 51.6101 18.0002H49.5012C49.5012 18.0002 49.3095 17.962 49.2712 17.8474L44.7083 6.80286C44.5933 6.57357 44.2482 6.65 44.2482 6.87929V17.7327C44.2482 17.7327 44.1331 17.962 44.0181 17.962H40.6822C40.6822 17.962 40.4521 17.8474 40.4521 17.7327V0.267874C40.4521 0.267874 40.5672 0.0385742 40.6822 0.0385742H45.5518C45.5518 0.0385742 45.7436 0.115007 45.7819 0.191439L50.3448 11.4653C50.4215 11.6563 50.6899 11.6563 50.7666 11.4653L55.3295 0.191439C55.3295 0.191439 55.4445 0.0385742 55.5595 0.0385742H60.3525C60.3525 0.0385742 60.5825 0.153225 60.5825 0.267874V17.7327C60.5825 17.7327 60.4675 17.962 60.3525 17.962" fill="white"/>
<path d="M66.2578 17.7327V0.267874C66.2578 0.267874 66.3728 0.0385742 66.4879 0.0385742H79.6781C79.6781 0.0385742 79.9081 0.153225 79.9081 0.267874V3.47804C79.9081 3.47804 79.7931 3.70734 79.6781 3.70734H70.2455C70.2455 3.70734 70.0155 3.82199 70.0155 3.93664V6.80286C70.0155 6.80286 70.1305 7.03216 70.2455 7.03216H78.5277C78.5277 7.03216 78.7578 7.14681 78.7578 7.26146V10.3188C78.7578 10.3188 78.6428 10.5481 78.5277 10.5481H70.2455C70.2455 10.5481 70.0155 10.6627 70.0155 10.7774V13.9875C70.0155 13.9875 70.1305 14.2168 70.2455 14.2168H79.6781C79.6781 14.2168 79.9081 14.3315 79.9081 14.4461V17.6945C79.9081 17.6945 79.7931 17.9238 79.6781 17.9238H66.4879C66.4879 17.9238 66.2578 17.8092 66.2578 17.6945" fill="white"/>
<path d="M91.0276 14.255H99.7699C99.7699 14.255 100 14.3697 100 14.4843V17.7327C100 17.7327 99.8849 17.962 99.7699 17.962H85.6978C85.6978 17.962 85.4678 17.8474 85.4678 17.7327V15.0576C85.4678 15.0576 85.4678 14.9429 85.5061 14.9047L94.0567 4.0895C94.0567 4.0895 94.0567 3.70734 93.865 3.70734H85.9279C85.9279 3.70734 85.6978 3.59269 85.6978 3.47804V0.267874C85.6978 0.267874 85.8129 0.0385742 85.9279 0.0385742H99.3098C99.3098 0.0385742 99.5398 0.153225 99.5398 0.267874V2.94301C99.5398 2.94301 99.5399 3.05766 99.5015 3.09588L90.8742 13.9111C90.8742 13.9111 90.8742 14.2933 91.0659 14.2933" fill="white"/>
<path d="M12.4233 11.1974C12.4233 11.1974 12.4233 10.9299 12.5 10.8916C17.2929 8.40759 16.2577 0 9.47086 0H0.230067C0.230067 0 0 0.114647 0 0.229296V3.47768C0 3.47768 0.115036 3.70698 0.230067 3.70698H9.16411C12.4233 3.70698 12.4233 8.17829 9.16411 8.17829H0.230067C0.230067 8.17829 0 8.29294 0 8.40759V17.7324C0 17.7324 0.115036 17.9617 0.230067 17.9617H3.56595C3.56595 17.9617 3.79601 17.847 3.79601 17.7324V11.8088C3.79601 11.8088 3.91105 11.5795 4.02608 11.5795H8.28221C8.28221 11.5795 8.43559 11.6178 8.47393 11.6942L11.8482 17.8088C11.8482 17.8088 11.9632 17.9234 12.0399 17.9234H15.8742C15.8742 17.9234 16.181 17.7324 16.066 17.5795L12.385 11.1974H12.4233Z" fill="white"/>
</svg>
