<svg width="36" height="36" viewBox="0 0 36 36" fill="none" xmlns="http://www.w3.org/2000/svg">
<path fill-rule="evenodd" clip-rule="evenodd" d="M18 4C18.5155 4 18.9333 4.41787 18.9333 4.93333V31.0667C18.9333 31.5821 18.5155 32 18 32C17.4845 32 17.0667 31.5821 17.0667 31.0667L17.0667 4.93333C17.0667 4.41787 17.4845 4 18 4Z" fill="#636363"/>
<path fill-rule="evenodd" clip-rule="evenodd" d="M4 18C4 17.4845 4.41787 17.0667 4.93333 17.0667L31.0667 17.0667C31.5821 17.0667 32 17.4845 32 18C32 18.5155 31.5821 18.9333 31.0667 18.9333L4.93333 18.9333C4.41787 18.9333 4 18.5155 4 18Z" fill="#636363"/>
</svg>
